<?xml version="1.0" encoding="utf-8"?>
<!-- Generator: Adobe Illustrator 23.0.6, SVG Export Plug-In . SVG Version: 6.00 Build 0)  -->
<svg version="1.1" id="Layer_1" xmlns="http://www.w3.org/2000/svg" xmlns:xlink="http://www.w3.org/1999/xlink" x="0px" y="0px"
	 viewBox="0 0 100 100" style="enable-background:new 0 0 100 100;" xml:space="preserve">
<style type="text/css">
	.st0{fill:#2A2F36;}
	.st1{fill:#FED136;}
	.st2{fill:none;stroke:#FFFDFD;stroke-width:2.7;stroke-linecap:round;stroke-linejoin:round;}
	.st3{fill:none;stroke:#FFFDFD;stroke-width:2.7;stroke-linecap:round;stroke-linejoin:round;stroke-dasharray:0,6.6823;}
	.st4{fill:none;stroke:#FFFFFF;stroke-width:1.4;stroke-linecap:round;stroke-miterlimit:10;stroke-dasharray:0,5.2715;}
</style>
<circle id="background_2_" class="st0" cx="50" cy="50" r="50"/>
<path id="circle-outer_2_" class="st1" d="M50,4c12.3,0,23.8,4.8,32.6,13.5S96.1,37.7,96.1,50s-4.8,23.8-13.5,32.5S62.3,96,50,96
	s-23.8-4.8-32.6-13.5S3.9,62.3,3.9,50s4.8-23.8,13.5-32.5C26.2,8.8,37.7,4,50,4 M50,2.4c-12.2,0-24.4,4.7-33.7,14
	c-18.6,18.6-18.6,48.7,0,67.4c9.3,9.3,21.5,14,33.7,14s24.4-4.7,33.7-14c18.6-18.6,18.6-48.7,0-67.4C74.4,7,62.2,2.4,50,2.4L50,2.4z
	"/>
<path id="circle-inner_2_" class="st1" d="M50,11.8c10.2,0,19.8,4,27,11.2C91.9,37.9,91.9,62.1,77,77c-7.2,7.2-16.8,11.2-27,11.2
	s-19.8-4-27-11.2c-7.2-7.2-11.2-16.8-11.2-27s4-19.8,11.2-27S39.8,11.8,50,11.8 M50,10.1c-10.2,0-20.4,3.9-28.2,11.7
	c-15.6,15.6-15.6,40.9,0,56.4c7.8,7.8,18,11.7,28.2,11.7S70.4,86,78.2,78.2c15.6-15.6,15.6-40.9,0-56.4C70.4,14,60.2,10.1,50,10.1
	L50,10.1z"/>
<g id="T">
	
		<rect x="66.1" y="38.6" transform="matrix(0.7071 -0.7071 0.7071 0.7071 -13.6761 62.3867)" class="st1" width="4.8" height="18.2"/>
	<g>
		
			<rect x="17.5" y="50.9" transform="matrix(0.7071 -0.7071 0.7071 0.7071 -26.0282 43.83)" class="st1" width="44.7" height="4.9"/>
		
			<rect x="64.3" y="12.8" transform="matrix(0.7071 -0.7071 0.7071 0.7071 -4.0911 56.8841)" class="st1" width="4.7" height="41.1"/>
		
			<rect x="49.5" y="22.8" transform="matrix(0.7071 -0.7071 0.7071 0.7071 -7.3582 46.0544)" class="st1" width="4.8" height="18.2"/>
		
			<rect x="24.3" y="57.7" transform="matrix(0.7071 -0.7071 0.7071 0.7071 -28.8362 50.6089)" class="st1" width="44.7" height="4.9"/>
	</g>
</g>
<g id="three-dots2_2_">
	<g>
		<line class="st2" x1="25.2" y1="35.2" x2="25.2" y2="35.2"/>
		<line class="st3" x1="29.9" y1="30.4" x2="32.3" y2="28.1"/>
		<line class="st2" x1="34.6" y1="25.7" x2="34.6" y2="25.7"/>
	</g>
</g>
<g id="three-dots1_2_">
	<g>
		<line class="st2" x1="64.8" y1="74.8" x2="64.8" y2="74.8"/>
		<line class="st3" x1="69.5" y1="70" x2="71.9" y2="67.7"/>
		<line class="st2" x1="74.3" y1="65.3" x2="74.3" y2="65.3"/>
	</g>
</g>
<g id="spining-dots">
	<circle class="st4" cx="50" cy="50" r="42.8">
	       <animateTransform attributeName="transform"
            attributeType='XML'
            type='rotate'
            from="0 50 50"
            to="-360 50 50"
            dur="50s"
            repeatCount='indefinite'/>
	</circle>
</g>
</svg>
