<?xml version="1.0" encoding="utf-8"?>
<!-- Generator: Adobe Illustrator 23.0.6, SVG Export Plug-In . SVG Version: 6.00 Build 0)  -->
<svg version="1.1" xmlns="http://www.w3.org/2000/svg" xmlns:xlink="http://www.w3.org/1999/xlink" x="0px" y="0px"
	 viewBox="0 0 100 100" style="enable-background:new 0 0 100 100;" xml:space="preserve">
<style type="text/css">
	.st0{display:none;}
	.st1{display:inline;}
	.st2{fill:#2A2F36;}
	.st3{fill:#FED136;}
	.st4{fill:none;stroke:#FFFDFD;stroke-width:2.7;stroke-linecap:round;stroke-linejoin:round;}
	.st5{fill:none;stroke:#FFFDFD;stroke-width:2.7;stroke-linecap:round;stroke-linejoin:round;stroke-dasharray:0,6.6823;}
	.st6{fill:none;stroke:#FFFFFF;stroke-width:1.4;stroke-linecap:round;stroke-miterlimit:10;stroke-dasharray:0,5.2715;}
	.st7{display:inline;fill:#212529;}
	.st8{display:inline;fill:#FED136;}
	.st9{display:inline;fill:#172828;}
	.st10{display:inline;fill:#DBBB88;}
	.st11{fill:#DBBB88;}
	.st12{fill:none;stroke:#DBBB88;stroke-width:2.7;stroke-linecap:round;stroke-linejoin:round;}
	.st13{fill:none;stroke:#DBBB88;stroke-width:2.7;stroke-linecap:round;stroke-linejoin:round;stroke-dasharray:0,6.6823;}
	.st14{fill:none;stroke:#F9D37D;stroke-width:2.7;stroke-linecap:round;stroke-linejoin:round;}
	.st15{fill:none;stroke:#DBBB88;stroke-width:1.4;stroke-linecap:round;stroke-miterlimit:10;stroke-dasharray:0,5.2715;}
	.st16{display:inline;fill:#2A2F36;}
	.st17{display:inline;fill:#927A47;}
	.st18{display:inline;fill:#8E7746;}
	.st19{fill:#EBDCA4;}
	.st20{fill:none;stroke:#F9F8F7;stroke-width:2.7;stroke-linecap:round;stroke-linejoin:round;}
	.st21{fill:none;stroke:#F9F8F7;stroke-width:2.7;stroke-linecap:round;stroke-linejoin:round;stroke-dasharray:0,6.6823;}
	.st22{fill:none;stroke:#FFFFFF;stroke-width:2.7;stroke-linecap:round;stroke-linejoin:round;}
	.st23{fill:none;stroke:#FFFFFF;stroke-width:2.7;stroke-linecap:round;stroke-linejoin:round;stroke-dasharray:0,6.6823;}
	.st24{fill:none;stroke:#FFFEFD;stroke-width:1.4;stroke-linecap:round;stroke-miterlimit:10;stroke-dasharray:0,9;}
</style>
<g id="blue_background" class="st0">
	<g class="st1">
		<circle id="background_2_" class="st2" cx="50" cy="50" r="50"/>
		<path id="circle-outer_2_" class="st3" d="M50,4c12.3,0,23.8,4.8,32.6,13.5S96.1,37.7,96.1,50s-4.8,23.8-13.5,32.5S62.3,96,50,96
			s-23.8-4.8-32.6-13.5S3.9,62.3,3.9,50s4.8-23.8,13.5-32.5C26.2,8.8,37.7,4,50,4 M50,2.4c-12.2,0-24.4,4.7-33.7,14
			C-2.3,35-2.3,65.1,16.3,83.8c9.3,9.3,21.5,14,33.7,14s24.4-4.7,33.7-14c18.6-18.6,18.6-48.7,0-67.4C74.4,7,62.2,2.4,50,2.4L50,2.4
			z"/>
		<path id="circle-inner_2_" class="st3" d="M50,11.8c10.2,0,19.8,4,27,11.2c14.9,14.9,14.9,39.1,0,54c-7.2,7.2-16.8,11.2-27,11.2
			s-19.8-4-27-11.2S11.8,60.2,11.8,50s4-19.8,11.2-27S39.8,11.8,50,11.8 M50,10.1c-10.2,0-20.4,3.9-28.2,11.7
			c-15.6,15.6-15.6,40.9,0,56.4c7.8,7.8,18,11.7,28.2,11.7S70.4,86,78.2,78.2c15.6-15.6,15.6-40.9,0-56.4C70.4,14,60.2,10.1,50,10.1
			L50,10.1z"/>
		<g id="T">
			
				<rect x="66.1" y="38.6" transform="matrix(0.7071 -0.7071 0.7071 0.7071 -13.6649 62.4175)" class="st3" width="4.8" height="18.2"/>
			<g>
				
					<rect x="17.5" y="50.9" transform="matrix(0.7071 -0.7071 0.7071 0.7071 -26.0575 43.7887)" class="st3" width="44.7" height="4.9"/>
				
					<rect x="64.3" y="12.8" transform="matrix(0.7071 -0.7071 0.7071 0.7071 -4.0501 56.9063)" class="st3" width="4.7" height="41.1"/>
				
					<rect x="49.5" y="22.8" transform="matrix(0.7071 -0.7071 0.7071 0.7071 -7.3522 46.0369)" class="st3" width="4.8" height="18.2"/>
				
					<rect x="24.3" y="57.7" transform="matrix(0.7071 -0.7071 0.7071 0.7071 -28.8813 50.5958)" class="st3" width="44.7" height="4.9"/>
			</g>
		</g>
		<g id="three-dots2_2_">
			<g>
				<line class="st4" x1="25.2" y1="35.2" x2="25.2" y2="35.2"/>
				<line class="st5" x1="29.9" y1="30.4" x2="32.3" y2="28.1"/>
				<line class="st4" x1="34.6" y1="25.7" x2="34.6" y2="25.7"/>
			</g>
		</g>
		<g id="three-dots1_2_">
			<g>
				<line class="st4" x1="64.8" y1="74.8" x2="64.8" y2="74.8"/>
				<line class="st5" x1="69.5" y1="70" x2="71.9" y2="67.7"/>
				<line class="st4" x1="74.3" y1="65.3" x2="74.3" y2="65.3"/>
			</g>
		</g>
		<g id="spining-dots">
			<circle class="st6" cx="50" cy="50" r="42.8">
			
				<animateTransform  accumulate="none" additive="replace" attributeName="transform" attributeType="XML" calcMode="linear" dur="50s" fill="remove" from="0 50 50" repeatCount="indefinite" restart="always" to="-360 50 50" type="rotate">
				</animateTransform>
			</circle>
		</g>
	</g>
	<circle id="background_3_" class="st7" cx="50" cy="50" r="50"/>
	<path id="circle-outer_3_" class="st8" d="M50,4c12.3,0,23.8,4.8,32.6,13.5S96.1,37.7,96.1,50s-4.8,23.8-13.5,32.5S62.3,96,50,96
		s-23.8-4.8-32.6-13.5S3.9,62.3,3.9,50s4.8-23.8,13.5-32.5C26.2,8.8,37.7,4,50,4 M50,2.4c-12.2,0-24.4,4.7-33.7,14
		C-2.3,35-2.3,65.1,16.3,83.8c9.3,9.3,21.5,14,33.7,14s24.4-4.7,33.7-14c18.6-18.6,18.6-48.7,0-67.4C74.4,7,62.2,2.4,50,2.4L50,2.4z
		"/>
	<path id="circle-inner_3_" class="st8" d="M50,11.8c10.2,0,19.8,4,27,11.2c14.9,14.9,14.9,39.1,0,54c-7.2,7.2-16.8,11.2-27,11.2
		s-19.8-4-27-11.2S11.8,60.2,11.8,50s4-19.8,11.2-27S39.8,11.8,50,11.8 M50,10.1c-10.2,0-20.4,3.9-28.2,11.7
		c-15.6,15.6-15.6,40.9,0,56.4c7.8,7.8,18,11.7,28.2,11.7S70.4,86,78.2,78.2c15.6-15.6,15.6-40.9,0-56.4C70.4,14,60.2,10.1,50,10.1
		L50,10.1z"/>
	<g id="T_2_" class="st1">
		
			<rect x="66.1" y="38.6" transform="matrix(0.7071 -0.7071 0.7071 0.7071 -13.6649 62.4175)" class="st3" width="4.8" height="18.2"/>
		<g>
			
				<rect x="17.5" y="50.9" transform="matrix(0.7071 -0.7071 0.7071 0.7071 -26.0575 43.7887)" class="st3" width="44.7" height="4.9"/>
			
				<rect x="64.3" y="12.8" transform="matrix(0.7071 -0.7071 0.7071 0.7071 -4.0501 56.9063)" class="st3" width="4.7" height="41.1"/>
			
				<rect x="49.5" y="22.8" transform="matrix(0.7071 -0.7071 0.7071 0.7071 -7.3522 46.0369)" class="st3" width="4.8" height="18.2"/>
			
				<rect x="24.3" y="57.7" transform="matrix(0.7071 -0.7071 0.7071 0.7071 -28.8813 50.5958)" class="st3" width="44.7" height="4.9"/>
		</g>
	</g>
	<g id="three-dots2_3_" class="st1">
		<g>
			<line class="st4" x1="25.2" y1="35.2" x2="25.2" y2="35.2"/>
			<line class="st5" x1="29.9" y1="30.4" x2="32.3" y2="28.1"/>
			<line class="st4" x1="34.6" y1="25.7" x2="34.6" y2="25.7"/>
		</g>
	</g>
	<g id="three-dots1_3_" class="st1">
		<g>
			<line class="st4" x1="64.8" y1="74.8" x2="64.8" y2="74.8"/>
			<line class="st5" x1="69.5" y1="70" x2="71.9" y2="67.7"/>
			<line class="st4" x1="74.3" y1="65.3" x2="74.3" y2="65.3"/>
		</g>
	</g>
	<g id="spining-dots_2_" class="st1">
		<circle class="st6" cx="50" cy="50" r="42.8">
		
			<animateTransform  accumulate="none" additive="replace" attributeName="transform" attributeType="XML" calcMode="linear" dur="50s" fill="remove" from="0 50 50" repeatCount="indefinite" restart="always" to="-360 50 50" type="rotate">
			</animateTransform>
		</circle>
	</g>
	<g id="grey">
		<circle id="background_1_" class="st9" cx="50" cy="50" r="50"/>
		<path id="circle-outer_1_" class="st10" d="M50,4c12.3,0,23.8,4.8,32.6,13.5S96.1,37.7,96.1,50s-4.8,23.8-13.5,32.5S62.3,96,50,96
			s-23.8-4.8-32.6-13.5S3.9,62.3,3.9,50s4.8-23.8,13.5-32.5C26.2,8.8,37.7,4,50,4 M50,2.4c-12.2,0-24.4,4.7-33.7,14
			C-2.3,35-2.3,65.1,16.3,83.8c9.3,9.3,21.5,14,33.7,14s24.4-4.7,33.7-14c18.6-18.6,18.6-48.7,0-67.4C74.4,7,62.2,2.4,50,2.4L50,2.4
			z"/>
		<path id="circle-inner_1_" class="st10" d="M50,11.8c10.2,0,19.8,4,27,11.2c14.9,14.9,14.9,39.1,0,54c-7.2,7.2-16.8,11.2-27,11.2
			s-19.8-4-27-11.2S11.8,60.2,11.8,50s4-19.8,11.2-27S39.8,11.8,50,11.8 M50,10.1c-10.2,0-20.4,3.9-28.2,11.7
			c-15.6,15.6-15.6,40.9,0,56.4c7.8,7.8,18,11.7,28.2,11.7S70.4,86,78.2,78.2c15.6-15.6,15.6-40.9,0-56.4C70.4,14,60.2,10.1,50,10.1
			L50,10.1z"/>
		<g id="T_1_" class="st1">
			
				<rect x="66.1" y="38.6" transform="matrix(0.7071 -0.7071 0.7071 0.7071 -13.6649 62.4175)" class="st11" width="4.8" height="18.2"/>
			<g>
				
					<rect x="17.5" y="50.9" transform="matrix(0.7071 -0.7071 0.7071 0.7071 -26.0575 43.7887)" class="st11" width="44.7" height="4.9"/>
				
					<rect x="64.3" y="12.8" transform="matrix(0.7071 -0.7071 0.7071 0.7071 -4.0501 56.9063)" class="st11" width="4.7" height="41.1"/>
				
					<rect x="49.5" y="22.8" transform="matrix(0.7071 -0.7071 0.7071 0.7071 -7.3522 46.0369)" class="st11" width="4.8" height="18.2"/>
				
					<rect x="24.3" y="57.7" transform="matrix(0.7071 -0.7071 0.7071 0.7071 -28.8813 50.5958)" class="st11" width="44.7" height="4.9"/>
			</g>
		</g>
		<g id="three-dots2_1_" class="st1">
			<g>
				<line class="st12" x1="25.2" y1="35.2" x2="25.2" y2="35.2"/>
				<line class="st13" x1="29.9" y1="30.4" x2="32.3" y2="28.1"/>
				<line class="st12" x1="34.6" y1="25.7" x2="34.6" y2="25.7"/>
			</g>
		</g>
		<g id="three-dots1_1_" class="st1">
			<g>
				<line class="st14" x1="64.8" y1="74.8" x2="64.8" y2="74.8"/>
				<line class="st13" x1="69.5" y1="70" x2="71.9" y2="67.7"/>
				<line class="st14" x1="74.3" y1="65.3" x2="74.3" y2="65.3"/>
			</g>
		</g>
		<g id="spining-dots_1_" class="st1">
			<circle class="st15" cx="50" cy="50" r="42.8">
			
				<animateTransform  accumulate="none" additive="replace" attributeName="transform" attributeType="XML" calcMode="linear" dur="50s" fill="remove" from="0 50 50" repeatCount="indefinite" restart="always" to="-360 50 50" type="rotate">
				</animateTransform>
			</circle>
		</g>
	</g>
</g>
<g id="black_background">
	<g>
		<circle id="background_7_" class="st2" cx="50" cy="50" r="50"/>
		<path id="circle-outer_7_" class="st3" d="M50,4c12.3,0,23.8,4.8,32.6,13.5S96.1,37.7,96.1,50s-4.8,23.8-13.5,32.5S62.3,96,50,96
			s-23.8-4.8-32.6-13.5S3.9,62.3,3.9,50s4.8-23.8,13.5-32.5C26.2,8.8,37.7,4,50,4 M50,2.4c-12.2,0-24.4,4.7-33.7,14
			C-2.3,35-2.3,65.1,16.3,83.8c9.3,9.3,21.5,14,33.7,14s24.4-4.7,33.7-14c18.6-18.6,18.6-48.7,0-67.4C74.4,7,62.2,2.4,50,2.4L50,2.4
			z"/>
		<path id="circle-inner_7_" class="st3" d="M50,11.8c10.2,0,19.8,4,27,11.2c14.9,14.9,14.9,39.1,0,54c-7.2,7.2-16.8,11.2-27,11.2
			s-19.8-4-27-11.2S11.8,60.2,11.8,50s4-19.8,11.2-27S39.8,11.8,50,11.8 M50,10.1c-10.2,0-20.4,3.9-28.2,11.7
			c-15.6,15.6-15.6,40.9,0,56.4c7.8,7.8,18,11.7,28.2,11.7S70.4,86,78.2,78.2c15.6-15.6,15.6-40.9,0-56.4C70.4,14,60.2,10.1,50,10.1
			L50,10.1z"/>
		<g id="T_6_">
			
				<rect x="66.1" y="38.6" transform="matrix(0.7071 -0.7071 0.7071 0.7071 -13.6649 62.4175)" class="st3" width="4.8" height="18.2"/>
			<g>
				
					<rect x="17.5" y="50.9" transform="matrix(0.7071 -0.7071 0.7071 0.7071 -26.0575 43.7887)" class="st3" width="44.7" height="4.9"/>
				
					<rect x="64.3" y="12.8" transform="matrix(0.7071 -0.7071 0.7071 0.7071 -4.0501 56.9063)" class="st3" width="4.7" height="41.1"/>
				
					<rect x="49.5" y="22.8" transform="matrix(0.7071 -0.7071 0.7071 0.7071 -7.3522 46.0369)" class="st3" width="4.8" height="18.2"/>
				
					<rect x="24.3" y="57.7" transform="matrix(0.7071 -0.7071 0.7071 0.7071 -28.8813 50.5958)" class="st3" width="44.7" height="4.9"/>
			</g>
		</g>
		<g id="three-dots2_7_">
			<g>
				<line class="st4" x1="25.2" y1="35.2" x2="25.2" y2="35.2"/>
				<line class="st5" x1="29.9" y1="30.4" x2="32.3" y2="28.1"/>
				<line class="st4" x1="34.6" y1="25.7" x2="34.6" y2="25.7"/>
			</g>
		</g>
		<g id="three-dots1_7_">
			<g>
				<line class="st4" x1="64.8" y1="74.8" x2="64.8" y2="74.8"/>
				<line class="st5" x1="69.5" y1="70" x2="71.9" y2="67.7"/>
				<line class="st4" x1="74.3" y1="65.3" x2="74.3" y2="65.3"/>
			</g>
		</g>
		<g id="spining-dots_6_">
			<circle class="st6" cx="50" cy="50" r="42.8">
			
				<animateTransform  accumulate="none" additive="replace" attributeName="transform" attributeType="XML" calcMode="linear" dur="50s" fill="remove" from="0 50 50" repeatCount="indefinite" restart="always" to="-360 50 50" type="rotate">
				</animateTransform>
			</circle>
		</g>
	</g>
	<circle id="background_6_" cx="50" cy="50" r="50"/>
	<path id="circle-outer_6_" class="st3" d="M50,4c12.3,0,23.8,4.8,32.6,13.5S96.1,37.7,96.1,50s-4.8,23.8-13.5,32.5S62.3,96,50,96
		s-23.8-4.8-32.6-13.5S3.9,62.3,3.9,50s4.8-23.8,13.5-32.5C26.2,8.8,37.7,4,50,4 M50,2.4c-12.2,0-24.4,4.7-33.7,14
		C-2.3,35-2.3,65.1,16.3,83.8c9.3,9.3,21.5,14,33.7,14s24.4-4.7,33.7-14c18.6-18.6,18.6-48.7,0-67.4C74.4,7,62.2,2.4,50,2.4L50,2.4z
		"/>
	<path id="circle-inner_6_" class="st3" d="M50,11.8c10.2,0,19.8,4,27,11.2c14.9,14.9,14.9,39.1,0,54c-7.2,7.2-16.8,11.2-27,11.2
		s-19.8-4-27-11.2S11.8,60.2,11.8,50s4-19.8,11.2-27S39.8,11.8,50,11.8 M50,10.1c-10.2,0-20.4,3.9-28.2,11.7
		c-15.6,15.6-15.6,40.9,0,56.4c7.8,7.8,18,11.7,28.2,11.7S70.4,86,78.2,78.2c15.6-15.6,15.6-40.9,0-56.4C70.4,14,60.2,10.1,50,10.1
		L50,10.1z"/>
	<g id="T_5_">
		
			<rect x="66.1" y="38.6" transform="matrix(0.7071 -0.7071 0.7071 0.7071 -13.6649 62.4175)" class="st3" width="4.8" height="18.2"/>
		<g>
			
				<rect x="17.5" y="50.9" transform="matrix(0.7071 -0.7071 0.7071 0.7071 -26.0575 43.7887)" class="st3" width="44.7" height="4.9"/>
			
				<rect x="64.3" y="12.8" transform="matrix(0.7071 -0.7071 0.7071 0.7071 -4.0501 56.9063)" class="st3" width="4.7" height="41.1"/>
			
				<rect x="49.5" y="22.8" transform="matrix(0.7071 -0.7071 0.7071 0.7071 -7.3522 46.0369)" class="st3" width="4.8" height="18.2"/>
			
				<rect x="24.3" y="57.7" transform="matrix(0.7071 -0.7071 0.7071 0.7071 -28.8813 50.5958)" class="st3" width="44.7" height="4.9"/>
		</g>
	</g>
	<g id="three-dots2_6_">
		<g>
			<line class="st4" x1="25.2" y1="35.2" x2="25.2" y2="35.2"/>
			<line class="st5" x1="29.9" y1="30.4" x2="32.3" y2="28.1"/>
			<line class="st4" x1="34.6" y1="25.7" x2="34.6" y2="25.7"/>
		</g>
	</g>
	<g id="three-dots1_6_">
		<g>
			<line class="st4" x1="64.8" y1="74.8" x2="64.8" y2="74.8"/>
			<line class="st5" x1="69.5" y1="70" x2="71.9" y2="67.7"/>
			<line class="st4" x1="74.3" y1="65.3" x2="74.3" y2="65.3"/>
		</g>
	</g>
	<g id="spining-dots_5_">
		<circle class="st6" cx="50" cy="50" r="42.8">
		
			<animateTransform  accumulate="none" additive="replace" attributeName="transform" attributeType="XML" calcMode="linear" dur="50s" fill="remove" from="0 50 50" repeatCount="indefinite" restart="always" to="-360 50 50" type="rotate">
			</animateTransform>
		</circle>
	</g>
	<g id="grey_1_" class="st0">
		<circle id="background_5_" class="st9" cx="50" cy="50" r="50"/>
		<path id="circle-outer_5_" class="st10" d="M50,4c12.3,0,23.8,4.8,32.6,13.5S96.1,37.7,96.1,50s-4.8,23.8-13.5,32.5S62.3,96,50,96
			s-23.8-4.8-32.6-13.5S3.9,62.3,3.9,50s4.8-23.8,13.5-32.5C26.2,8.8,37.7,4,50,4 M50,2.4c-12.2,0-24.4,4.7-33.7,14
			C-2.3,35-2.3,65.1,16.3,83.8c9.3,9.3,21.5,14,33.7,14s24.4-4.7,33.7-14c18.6-18.6,18.6-48.7,0-67.4C74.4,7,62.2,2.4,50,2.4L50,2.4
			z"/>
		<path id="circle-inner_5_" class="st10" d="M50,11.8c10.2,0,19.8,4,27,11.2c14.9,14.9,14.9,39.1,0,54c-7.2,7.2-16.8,11.2-27,11.2
			s-19.8-4-27-11.2S11.8,60.2,11.8,50s4-19.8,11.2-27S39.8,11.8,50,11.8 M50,10.1c-10.2,0-20.4,3.9-28.2,11.7
			c-15.6,15.6-15.6,40.9,0,56.4c7.8,7.8,18,11.7,28.2,11.7S70.4,86,78.2,78.2c15.6-15.6,15.6-40.9,0-56.4C70.4,14,60.2,10.1,50,10.1
			L50,10.1z"/>
		<g id="T_4_" class="st1">
			
				<rect x="66.1" y="38.6" transform="matrix(0.7071 -0.7071 0.7071 0.7071 -13.6649 62.4175)" class="st11" width="4.8" height="18.2"/>
			<g>
				
					<rect x="17.5" y="50.9" transform="matrix(0.7071 -0.7071 0.7071 0.7071 -26.0575 43.7887)" class="st11" width="44.7" height="4.9"/>
				
					<rect x="64.3" y="12.8" transform="matrix(0.7071 -0.7071 0.7071 0.7071 -4.0501 56.9063)" class="st11" width="4.7" height="41.1"/>
				
					<rect x="49.5" y="22.8" transform="matrix(0.7071 -0.7071 0.7071 0.7071 -7.3522 46.0369)" class="st11" width="4.8" height="18.2"/>
				
					<rect x="24.3" y="57.7" transform="matrix(0.7071 -0.7071 0.7071 0.7071 -28.8813 50.5958)" class="st11" width="44.7" height="4.9"/>
			</g>
		</g>
		<g id="three-dots2_5_" class="st1">
			<g>
				<line class="st12" x1="25.2" y1="35.2" x2="25.2" y2="35.2"/>
				<line class="st13" x1="29.9" y1="30.4" x2="32.3" y2="28.1"/>
				<line class="st12" x1="34.6" y1="25.7" x2="34.6" y2="25.7"/>
			</g>
		</g>
		<g id="three-dots1_5_" class="st1">
			<g>
				<line class="st14" x1="64.8" y1="74.8" x2="64.8" y2="74.8"/>
				<line class="st13" x1="69.5" y1="70" x2="71.9" y2="67.7"/>
				<line class="st14" x1="74.3" y1="65.3" x2="74.3" y2="65.3"/>
			</g>
		</g>
		<g id="spining-dots_4_" class="st1">
			<circle class="st15" cx="50" cy="50" r="42.8">
			
				<animateTransform  accumulate="none" additive="replace" attributeName="transform" attributeType="XML" calcMode="linear" dur="50s" fill="remove" from="0 50 50" repeatCount="indefinite" restart="always" to="-360 50 50" type="rotate">
				</animateTransform>
			</circle>
		</g>
	</g>
</g>
<g id="muted" class="st0">
	<circle id="background_4_" class="st16" cx="50" cy="50" r="50"/>
	<path id="circle-outer_4_" class="st17" d="M50,4c12.3,0,23.8,4.8,32.6,13.5S96.1,37.7,96.1,50s-4.8,23.8-13.5,32.5S62.3,96,50,96
		s-23.8-4.8-32.6-13.5S3.9,62.3,3.9,50s4.8-23.8,13.5-32.5C26.2,8.8,37.7,4,50,4 M50,2.4c-12.2,0-24.4,4.7-33.7,14
		C-2.3,35-2.3,65.1,16.3,83.8c9.3,9.3,21.5,14,33.7,14s24.4-4.7,33.7-14c18.6-18.6,18.6-48.7,0-67.4C74.4,7,62.2,2.4,50,2.4L50,2.4z
		"/>
	<path id="circle-inner_4_" class="st18" d="M50,11.8c10.2,0,19.8,4,27,11.2c14.9,14.9,14.9,39.1,0,54c-7.2,7.2-16.8,11.2-27,11.2
		s-19.8-4-27-11.2S11.8,60.2,11.8,50s4-19.8,11.2-27S39.8,11.8,50,11.8 M50,10.1c-10.2,0-20.4,3.9-28.2,11.7
		c-15.6,15.6-15.6,40.9,0,56.4c7.8,7.8,18,11.7,28.2,11.7S70.4,86,78.2,78.2c15.6-15.6,15.6-40.9,0-56.4C70.4,14,60.2,10.1,50,10.1
		L50,10.1z"/>
	<g id="T_3_" class="st1">
		
			<rect x="66.1" y="38.6" transform="matrix(0.7071 -0.7071 0.7071 0.7071 -13.6649 62.4175)" class="st19" width="4.8" height="18.2"/>
		<g>
			
				<rect x="17.5" y="50.9" transform="matrix(0.7071 -0.7071 0.7071 0.7071 -26.0575 43.7887)" class="st19" width="44.7" height="4.9"/>
			
				<rect x="64.3" y="12.8" transform="matrix(0.7071 -0.7071 0.7071 0.7071 -4.0501 56.9063)" class="st19" width="4.7" height="41.1"/>
			
				<rect x="49.5" y="22.8" transform="matrix(0.7071 -0.7071 0.7071 0.7071 -7.3522 46.0369)" class="st19" width="4.8" height="18.2"/>
			
				<rect x="24.3" y="57.7" transform="matrix(0.7071 -0.7071 0.7071 0.7071 -28.8813 50.5958)" class="st19" width="44.7" height="4.9"/>
		</g>
	</g>
	<g id="three-dots2_4_" class="st1">
		<g>
			<line class="st20" x1="25.2" y1="35.2" x2="25.2" y2="35.2"/>
			<line class="st21" x1="29.9" y1="30.4" x2="32.3" y2="28.1"/>
			<line class="st20" x1="34.6" y1="25.7" x2="34.6" y2="25.7"/>
		</g>
	</g>
	<g id="three-dots1_4_" class="st1">
		<g>
			<line class="st22" x1="64.8" y1="74.8" x2="64.8" y2="74.8"/>
			<line class="st23" x1="69.5" y1="70" x2="71.9" y2="67.7"/>
			<line class="st22" x1="74.3" y1="65.3" x2="74.3" y2="65.3"/>
		</g>
	</g>
	<g id="spining-dots_3_" class="st1">
		<circle class="st24" cx="50" cy="50" r="42.8">
		
			<animateTransform  accumulate="none" additive="replace" attributeName="transform" attributeType="XML" calcMode="linear" dur="50s" fill="remove" from="0 50 50" repeatCount="indefinite" restart="always" to="-360 50 50" type="rotate">
			</animateTransform>
		</circle>
	</g>
</g>
</svg>
