<?xml version="1.0" encoding="utf-8"?>
<!-- Generator: Adobe Illustrator 23.0.6, SVG Export Plug-In . SVG Version: 6.00 Build 0)  -->
<svg version="1.1" id="Layer_1" xmlns="http://www.w3.org/2000/svg" xmlns:xlink="http://www.w3.org/1999/xlink" x="0px" y="0px"
	 viewBox="0 0 100.1 100" style="enable-background:new 0 0 100.1 100;" xml:space="preserve">
<style type="text/css">
	.st0{fill-rule:evenodd;clip-rule:evenodd;fill:#9CBABD;}
	.st1{fill:#202429;}
	.st2{fill:none;stroke:#FED136;stroke-width:1.7;stroke-miterlimit:10;}
	.st3{fill:#FED136;}
	.st4{fill:none;stroke:#FFFDFD;stroke-width:2.7;stroke-linecap:round;stroke-linejoin:round;}
	.st5{fill:none;stroke:#FFFDFD;stroke-width:2.7;stroke-linecap:round;stroke-linejoin:round;stroke-dasharray:0,6.6823;}
	.st6{fill:none;stroke:#FFFFFF;stroke-width:1.4;stroke-linecap:round;stroke-miterlimit:10;stroke-dasharray:0,7.6;}
	.st7{fill-rule:evenodd;clip-rule:evenodd;fill:#6B7D80;}
	.st8{fill:#FFFFFF;}
</style>
<path class="st0" d="M89.3,70.9c4.7-1,8.5,0.2,10.8,1l-5.7-8.3l5.7-6.8c-5.2-1.9-14.2,3.6-18.7,8.2c0,0,1.4,0.1,3.8-0.2
	c2.4-0.3,4.1-0.5,4.1-0.5V70.9L89.3,70.9z"/>
<circle id="background_3_" class="st1" cx="50.1" cy="50" r="40.9"/>
<circle id="cirle-inner" class="st2" cx="50.1" cy="50" r="31.2"/>
<circle id="cirle-inner_1_" class="st2" cx="50.1" cy="50" r="38.5"/>
<g id="T_2_">
	
		<rect x="63.3" y="40.7" transform="matrix(0.7071 -0.7071 0.7071 0.7071 -14.944 60.2218)" class="st3" width="3.9" height="14.9"/>
	<g>
		<rect x="23.5" y="50.7" transform="matrix(0.7071 -0.7071 0.7071 0.7071 -25.0706 44.983)" class="st3" width="36.6" height="4"/>
		
			<rect x="61.8" y="19.5" transform="matrix(0.7071 -0.7071 0.7071 0.7071 -7.0209 55.7399)" class="st3" width="3.8" height="33.6"/>
		
			<rect x="49.7" y="27.8" transform="matrix(0.7071 -0.7071 0.7071 0.7071 -9.7691 46.8226)" class="st3" width="3.9" height="14.9"/>
		<rect x="29" y="56.3" transform="matrix(0.7071 -0.7071 0.7071 0.7071 -27.3822 50.5471)" class="st3" width="36.6" height="4"/>
	</g>
</g>
<g id="three-dots2_3_">
	<g>
		<line class="st4" x1="29.8" y1="37.9" x2="29.8" y2="37.9"/>
		<line class="st5" x1="33.6" y1="34" x2="35.6" y2="32.1"/>
		<line class="st4" x1="37.5" y1="30.1" x2="37.5" y2="30.1"/>
	</g>
</g>
<g id="three-dots1_3_">
	<g>
		<line class="st4" x1="62.2" y1="70.3" x2="62.2" y2="70.3"/>
		<line class="st5" x1="66" y1="66.4" x2="68" y2="64.5"/>
		<line class="st4" x1="70" y1="62.5" x2="70" y2="62.5"/>
	</g>
</g>
<g id="spining-dots_2_">
	<circle class="st6" cx="50.1" cy="50" r="34.7">
	
		<animateTransform  accumulate="none" additive="replace" attributeName="transform" attributeType="XML" calcMode="linear" dur="50s" fill="remove" from="0 50 50" repeatCount="indefinite" restart="always" to="-360 50 50" type="rotate">
		</animateTransform>
	</circle>
</g>
<g id="Layer_2">
	<path class="st0" d="M11.3,79.7v-7.4c-3.8,0.8-8.1,0.3-11.2-0.8l5.7,8.3l-5.7,6.8c5.5,2.1,14.3,2,18.5-3.5L11.3,79.7L11.3,79.7z"/>
	<path class="st7" d="M18.3,82.5v-5.8c-2.1,0.8-4.2,1.9-6,3L18.3,82.5L18.3,82.5z"/>
	<path class="st0" d="M88.8,80.1c-29.3,4.4-51.9-15.6-76.9-0.6l0,0V64.1c24.9-15.1,47.6,4.9,76.9,0.5V80.1L88.8,80.1z"/>
</g>
<g id="trace">
	<g>
		<g>
			<path class="st8" d="M27.6,61.9c0.7-0.1,1-0.1,1.7-0.2c1.9-0.2,3.1,1.3,3.1,4.7c0,3.3-1.2,4.9-3,5c-0.7,0.1-1.1,0.1-1.8,0.2
				C27.6,67.7,27.6,65.8,27.6,61.9z M29.2,69.7c1-0.1,1.7-0.9,1.7-3.2c0-2.3-0.7-3-1.7-2.9c-0.1,0-0.2,0-0.3,0c0,2.5,0,3.7,0,6.2
				C29.1,69.7,29.1,69.7,29.2,69.7z"/>
			<path class="st8" d="M33.6,61.6c0.6,0,0.8,0,1.4,0c0,3.9,0,5.8,0,9.7c-0.6,0-0.8,0-1.4,0C33.6,67.4,33.6,65.4,33.6,61.6z"/>
			<path class="st8" d="M36.4,61.7c0.6,0,0.9,0.1,1.4,0.1c0.6,2,1,3,1.6,5c0.2,0.9,0.4,1.3,0.6,2.2c0,0,0,0,0,0
				c-0.1-1-0.2-2.4-0.2-3.5c0-1.4,0-2.1,0-3.4c0.5,0.1,0.8,0.1,1.3,0.2c0,3.9,0,5.8,0,9.7c-0.6-0.1-0.9-0.1-1.4-0.2
				c-0.6-2-1-3-1.6-5c-0.2-0.9-0.4-1.3-0.6-2.2c0,0,0,0,0,0c0.1,1.1,0.2,2.4,0.2,3.5c0,1.4,0,2.1,0,3.4c-0.5,0-0.8-0.1-1.3-0.1
				C36.4,67.5,36.4,65.6,36.4,61.7z"/>
			<path class="st8" d="M42.7,62.4c0.6,0.1,0.8,0.1,1.4,0.2c0,1.5,0,2.2,0,3.7c0.9,0.1,1.3,0.2,2.2,0.4c0-1.5,0-2.2,0-3.7
				c0.6,0.1,0.8,0.2,1.4,0.3c0,3.9,0,5.8,0,9.7c-0.6-0.1-0.8-0.2-1.4-0.3c0-1.6,0-2.4,0-4c-0.9-0.2-1.3-0.2-2.2-0.4c0,1.6,0,2.4,0,4
				c-0.6-0.1-0.8-0.1-1.4-0.2C42.7,68.2,42.7,66.3,42.7,62.4z"/>
			<path class="st8" d="M52.4,66.1c-0.7-0.2-1-0.2-1.7-0.4c0-0.7,0-1.1,0-1.8c2,0.4,2.9,0.6,4.9,1.1c0,0.7,0,1.1,0,1.8
				c-0.7-0.2-1.1-0.2-1.8-0.4c0,3.1,0,4.7,0,7.8c-0.6-0.1-0.9-0.2-1.4-0.3C52.4,70.8,52.4,69.2,52.4,66.1z"/>
			<path class="st8" d="M56.5,65.2c0.9,0.2,1.4,0.3,2.3,0.5c1.4,0.3,2.5,1.2,2.5,3.5c0,2.2-1.1,3-2.5,2.7c-0.3-0.1-0.5-0.1-0.9-0.2
				c0,1.4,0,2.1,0,3.5c-0.6-0.1-0.9-0.2-1.5-0.3C56.5,71,56.5,69,56.5,65.2z M58.7,70.1c0.8,0.2,1.2-0.2,1.2-1.2
				c0-1-0.4-1.4-1.2-1.5c-0.3-0.1-0.4-0.1-0.7-0.2c0,1.1,0,1.6,0,2.7C58.3,70,58.4,70,58.7,70.1z M58.6,71.2c0.4-0.5,0.6-0.7,1-1.2
				c0.8,2.4,1.2,3.5,2.1,5.9c-0.7-0.1-1-0.2-1.6-0.3C59.5,73.9,59.2,73,58.6,71.2z"/>
			<path class="st8" d="M63.8,66.7c0.7,0.1,1.1,0.2,1.8,0.3c0.8,4,1.2,6,2.1,10c-0.6-0.1-1-0.2-1.6-0.3c-0.3-2-0.5-3-0.9-5.1
				c-0.2-1-0.4-2.2-0.5-3.2c0,0,0,0,0,0c-0.2,1-0.3,2.1-0.5,3c-0.3,1.9-0.5,2.8-0.9,4.7c-0.6-0.1-0.9-0.2-1.5-0.3
				C62.5,72.3,63,70.4,63.8,66.7z M63.1,72.2c1.3,0.2,1.9,0.4,3.2,0.6c0,0.7,0,1,0,1.7c-1.3-0.2-1.9-0.3-3.2-0.6
				C63.1,73.2,63.1,72.9,63.1,72.2z"/>
			<path class="st8" d="M68.3,67.5c0.6,0.1,0.9,0.1,1.6,0.2c0.7,2,1.1,3,1.8,5c0.3,0.9,0.4,1.3,0.7,2.2c0,0,0,0,0,0
				c-0.1-1-0.2-2.4-0.2-3.5c0-1.4,0-2.1,0-3.4c0.6,0.1,0.9,0.1,1.5,0.2c0,3.9,0,5.8,0,9.7c-0.6-0.1-1-0.1-1.6-0.2
				c-0.7-2-1.1-3-1.8-5c-0.3-0.9-0.4-1.3-0.7-2.2c0,0,0,0,0,0c0.1,1.1,0.2,2.4,0.2,3.5c0,1.4,0,2.1,0,3.4c-0.6-0.1-0.9-0.1-1.4-0.2
				C68.3,73.3,68.3,71.3,68.3,67.5z"/>
		</g>
	</g>
</g>
</svg>
